<svg xmlns="http://www.w3.org/2000/svg" width="355.25" height="34.907">
    <path d="M-.004 34.328h14.881c7.3 0 12-2.64 12-9.313 0-5.664-4.032-8.16-8.688-8.784v-.1c4.512-.913 7.152-3.7 7.152-7.393a6.709 6.709 0 00-2.976-5.9c-1.872-1.248-4.656-1.728-8.5-1.728H-.004v1.392c4.224.288 4.32.384 4.32 3.072v24.289c0 2.689-.1 2.785-4.32 3.073v1.392zm9.073-5.377V17.287h3.456c5.952 0 9.217 2.976 9.217 8.064 0 5.76-3.936 7.3-8.065 7.3-3.841-.003-4.608-.723-4.608-3.7zm0-13.344V5.19c0-2.064.144-2.4 3.888-2.4 3.5 0 7.345 1.3 7.345 6.24 0 4.7-3.024 6.577-8.017 6.577H9.069zm30.816 18.721h12.673v-1.392c-4.273-.24-4.561-.336-4.561-2.785V18.919c0-3.7 1.632-4.945 2.736-4.945a6.3 6.3 0 012.977 1.056 2.011 2.011 0 00.96.24 2.529 2.529 0 002.208-2.688 2.313 2.313 0 00-2.544-2.352c-1.728 0-3.169 1.056-6.337 3.84l-.576-3.84-7.3 1.2v1.2l1.824.24c1.248.192 1.536.432 1.536 2.16v15.121c0 2.449-.24 2.545-3.6 2.785v1.392zM71.42 2.934A2.929 2.929 0 1074.349.006a2.8 2.8 0 00-2.93 2.928zm-2.88 31.394h11.713v-1.392c-3.408-.24-3.6-.336-3.6-2.785V10.519l-.336-.288-7.537 1.2v1.2l1.824.24c1.248.192 1.536.432 1.536 2.16v15.121c0 2.449-.144 2.545-3.6 2.785v1.392zm24.287-8.017l.48 6.289c1.729 1.536 4.657 2.3 7.489 2.3 5.712 0 8.977-3.024 8.977-7.105 0-4.224-2.593-6.144-7.537-7.68-1.968-.624-5.136-1.632-5.136-4.32 0-2.5 1.92-3.889 4.32-3.889 3.408 0 5.04 2.64 5.376 5.569h1.392v-5.617a11.068 11.068 0 00-6.192-1.632c-5.184 0-8.737 2.448-8.737 7.009 0 3.984 3.265 5.76 7.249 6.96 2.16.672 5.184 1.776 5.184 5.04 0 2.449-1.92 3.985-4.464 3.985-3.888 0-6.048-2.833-7.008-6.913h-1.393zm30.624-3.552c0 7.584 3.264 12.145 11.089 12.145 5.328 0 8.064-2.976 9.36-6.769l-1.44-.768c-1.344 2.784-3.168 5.089-6.96 5.089-5.953 0-7.153-5.761-7.057-10.753h13.826c1.008 0 1.92-.24 1.92-1.824 0-2.832-.912-9.649-9.7-9.649-7.487 0-11.039 5.328-11.039 12.529zm5.04-2.88c0-1.968.72-7.969 5.713-7.969 4.464 0 4.992 4.561 4.992 6.433 0 .912-.288 1.536-1.632 1.536h-9.073zm48.959 14.449h14.977c14.737 0 18.433-8.593 18.433-17.185 0-7.873-3.5-16.033-17.473-16.033h-15.938v1.392c4.224.288 4.32.384 4.32 3.072v24.289c0 2.689-.1 2.785-4.32 3.073v1.392zm9.073-6v-22.8c0-2.5.432-2.736 5.568-2.736 10.177 0 13.393 6.432 13.393 14.545 0 12.1-5.905 15.313-13.969 15.313-4.177-.002-4.993-.531-4.993-4.323zm38.591-5.76c0 7.776 3.792 12.337 11.52 12.337s11.521-4.561 11.521-12.337-3.792-12.337-11.521-12.337-11.521 4.559-11.521 12.336zm4.992 0c0-6.624 2.112-10.657 6.528-10.657s6.529 4.033 6.529 10.657-2.112 10.657-6.529 10.657-6.529-4.034-6.529-10.658zm31.2-9.937l1.825.24c1.248.192 1.536.432 1.536 2.16v12.673c0 5.521 3.264 7.2 6.816 7.2 4.08 0 7.393-2.784 8.785-3.457l.48 2.881h7.68v-1.392c-3.312-.24-3.6-.336-3.6-2.785V10.519l-.336-.288-7.537 1.2v1.2l1.825.24c1.248.192 1.536.432 1.536 2.16v10.8a7.7 7.7 0 01-.384 2.88 6.6 6.6 0 01-5.905 3.6c-2.784 0-4.848-1.729-4.848-5.473V10.519l-.336-.288-7.537 1.2v1.2zm39.792 10.177c0 8.016 3.936 12.1 11.137 12.1a9.255 9.255 0 009.216-6.913l-1.392-.672c-1.488 3.36-3.408 5.089-6.912 5.089-5.713 0-7.057-5.953-7.057-10.465 0-7.153 2.832-10.033 6.145-10.033 2.208 0 3.6 1.584 4.56 4.177a1.456 1.456 0 001.488 1.248c.96 0 2.832-.624 2.832-2.449 0-2.208-3.168-4.656-8.352-4.656-8.739-.004-11.667 6.185-11.667 12.573zm33.407-.048c0 7.584 3.264 12.145 11.089 12.145 5.328 0 8.064-2.976 9.361-6.769l-1.441-.768c-1.344 2.784-3.168 5.089-6.96 5.089-5.952 0-7.152-5.761-7.056-10.753h13.824c1.009 0 1.921-.24 1.921-1.824 0-2.832-.912-9.649-9.7-9.649-7.487-.001-11.04 5.327-11.04 12.528zm5.041-2.88c0-1.968.72-7.969 5.712-7.969 4.464 0 4.992 4.561 4.992 6.433 0 .912-.288 1.536-1.632 1.536h-9.072z" fill="#1a1715" fill-rule="evenodd" />
</svg>
